<svg width="1004" height="1179" viewBox="0 0 1004 1179" fill="none" xmlns="http://www.w3.org/2000/svg">
<path fill-rule="evenodd" clip-rule="evenodd" d="M413.259 129.834L395.966 203.606L344.476 259.195L327.182 332.97L275.693 388.558L258.4 462.33L206.91 517.92L189.616 591.693L138.126 647.283L120.834 721.054L69.3438 776.644L52.0501 850.418L0.715915 905.84L1.94281 907L53.5918 851.238L70.8864 777.464L122.376 721.874L139.669 648.103L191.158 592.513L208.452 518.74L259.942 463.15L277.235 389.378L328.724 333.79L346.019 260.015L397.508 204.426L414.801 130.654L466.29 75.0648L483.638 1.06364L481.989 0.696325L464.748 74.245L413.259 129.834Z" fill="red"/>
<path fill-rule="evenodd" clip-rule="evenodd" d="M408.871 210.468L357.382 266.056L340.087 339.832L288.598 395.42L271.305 469.192L219.815 524.781L202.521 598.555L151.032 654.144L133.739 727.916L82.2495 783.505L64.9552 857.279L13.6212 912.701L14.8489 913.862L66.4971 858.099L83.792 784.325L135.281 728.736L152.574 654.964L204.063 599.375L221.358 525.601L272.847 470.012L290.14 396.24L341.629 340.651L358.924 266.876L410.413 211.288L427.706 137.516L479.196 81.9263L496.544 7.92564L494.895 7.5579L477.654 81.1065L426.164 136.696L408.871 210.468Z" fill="red"/>
<path fill-rule="evenodd" clip-rule="evenodd" d="M420.342 216.567L368.853 272.155L351.558 345.931L300.069 401.519L282.776 475.292L231.286 530.88L213.992 604.655L162.502 660.243L145.21 734.015L93.7202 789.604L76.4259 863.379L25.0919 918.801L26.3196 919.962L77.9678 864.199L95.2627 790.424L146.752 734.835L164.045 661.064L215.534 605.474L232.829 531.701L284.317 476.111L301.611 402.339L353.1 346.751L370.395 272.976L421.884 217.387L439.177 143.616L490.666 88.0257L508.015 14.025L506.365 13.6573L489.124 87.2059L437.634 142.796L420.342 216.567Z" fill="red"/>
<path fill-rule="evenodd" clip-rule="evenodd" d="M433.245 223.429L381.757 279.017L364.462 352.792L312.973 408.381L295.679 482.153L244.19 537.742L226.896 611.516L175.407 667.105L158.114 740.876L106.624 796.466L89.3296 870.24L37.9962 925.662L39.2238 926.823L90.8721 871.06L108.167 797.286L159.656 741.697L176.949 667.925L228.438 612.336L245.733 538.562L297.222 482.973L314.515 409.201L366.004 353.612L383.299 279.837L434.788 224.249L452.081 150.477L503.571 94.8873L520.919 20.8865L519.27 20.5188L502.028 94.0671L450.539 149.657L433.245 223.429Z" fill="red"/>
<path fill-rule="evenodd" clip-rule="evenodd" d="M444.717 229.528L393.228 285.116L375.933 358.891L324.445 414.48L307.151 488.252L255.662 543.841L238.367 617.615L186.878 673.204L169.585 746.976L118.096 802.565L100.801 876.339L49.4686 931.762L50.6954 932.922L102.344 877.159L119.639 803.385L171.128 747.796L188.421 674.024L239.91 618.435L257.204 544.661L308.693 489.072L325.987 415.3L377.476 359.711L394.771 285.936L446.26 230.348L463.553 156.576L515.042 100.986L532.391 26.9856L530.742 26.6184L513.5 100.166L462.01 155.756L444.717 229.528Z" fill="red"/>
<path fill-rule="evenodd" clip-rule="evenodd" d="M457.621 236.389L406.133 291.978L388.838 365.753L337.349 421.342L320.055 495.114L268.566 550.703L251.272 624.477L199.783 680.066L182.489 753.837L131 809.427L113.706 883.201L62.3729 938.624L63.5997 939.784L115.248 884.021L132.543 810.247L184.032 754.657L201.325 680.886L252.814 625.297L270.109 551.523L321.598 495.934L338.891 422.162L390.38 366.573L407.675 292.798L459.164 237.21L476.457 163.438L527.947 107.848L545.295 33.8475L543.646 33.4802L526.404 107.028L474.915 162.618L457.621 236.389Z" fill="red"/>
<path fill-rule="evenodd" clip-rule="evenodd" d="M469.093 242.489L417.604 298.077L400.309 371.852L348.821 427.441L331.527 501.213L280.038 556.802L262.743 630.576L211.254 686.165L193.961 759.936L142.472 815.526L125.177 889.3L73.8438 944.722L75.0708 945.883L126.72 890.12L144.014 816.345L195.504 760.757L212.796 686.985L264.286 631.396L281.58 557.622L333.069 502.033L350.362 428.26L401.852 372.672L419.146 298.897L470.636 243.309L487.928 169.537L539.418 113.947L556.766 39.9462L555.117 39.5789L537.876 113.127L486.386 168.717L469.093 242.489Z" fill="red"/>
<path fill-rule="evenodd" clip-rule="evenodd" d="M480.564 248.588L429.075 304.176L411.78 377.952L360.291 433.54L342.998 507.312L291.509 562.901L274.214 636.675L222.725 692.264L205.432 766.036L153.943 821.625L136.648 895.399L85.3145 950.822L86.5415 951.982L138.19 896.22L155.485 822.445L206.974 766.856L224.267 693.084L275.757 637.495L293.05 563.721L344.54 508.132L361.833 434.36L413.322 378.772L430.617 304.996L482.106 249.408L499.399 175.636L550.889 120.047L568.237 46.0456L566.588 45.6783L549.346 119.226L497.857 174.817L480.564 248.588Z" fill="red"/>
<path fill-rule="evenodd" clip-rule="evenodd" d="M493.469 255.45L441.98 311.038L424.685 384.813L373.197 440.402L355.903 514.174L304.414 569.763L287.119 643.537L235.63 699.126L218.337 772.897L166.848 828.487L149.553 902.261L98.2198 957.683L99.4467 958.844L151.096 903.081L168.39 829.306L219.88 773.718L237.172 699.946L288.662 644.357L305.956 570.583L357.445 514.994L374.738 441.221L426.228 385.633L443.522 311.858L495.012 256.27L512.304 182.498L563.794 126.908L581.142 52.9071L579.493 52.5398L562.252 126.088L510.762 181.678L493.469 255.45Z" fill="red"/>
<path fill-rule="evenodd" clip-rule="evenodd" d="M504.94 261.549L453.451 317.137L436.157 390.913L384.667 446.501L367.374 520.273L315.885 575.862L298.591 649.636L247.101 705.225L229.809 778.997L178.319 834.586L161.025 908.361L109.691 963.782L110.917 964.943L162.566 909.18L179.861 835.405L231.35 779.817L248.643 706.045L300.133 650.456L317.426 576.682L368.916 521.093L386.209 447.321L437.698 391.732L454.993 317.957L506.482 262.369L523.775 188.597L575.265 133.007L592.613 59.0063L590.964 58.639L573.723 132.188L522.233 187.777L504.94 261.549Z" fill="red"/>
<path fill-rule="evenodd" clip-rule="evenodd" d="M517.845 268.411L466.355 323.999L449.061 397.774L397.572 453.363L380.279 527.135L328.789 582.724L311.495 656.498L260.005 712.087L242.713 785.859L191.223 841.448L173.929 915.222L122.595 970.644L123.822 971.805L175.471 916.042L192.766 842.268L244.255 786.678L261.548 712.907L313.037 657.318L330.331 583.544L381.82 527.955L399.114 454.183L450.603 398.594L467.898 324.819L519.387 269.231L536.68 195.459L588.169 139.869L605.517 65.8681L603.868 65.5008L586.627 139.049L535.137 194.639L517.845 268.411Z" fill="red"/>
<path fill-rule="evenodd" clip-rule="evenodd" d="M529.316 274.51L477.827 330.098L460.532 403.874L409.043 459.462L391.75 533.234L340.261 588.823L322.967 662.597L271.477 718.186L254.184 791.958L202.695 847.547L185.401 921.321L134.067 976.743L135.293 977.904L186.942 922.141L204.237 848.367L255.726 792.778L273.02 719.006L324.509 663.417L341.803 589.643L393.292 534.054L410.586 460.282L462.074 404.693L479.37 330.918L530.858 275.33L548.152 201.558L599.641 145.968L616.989 71.9672L615.34 71.5999L598.099 145.149L546.609 200.738L529.316 274.51Z" fill="red"/>
<path fill-rule="evenodd" clip-rule="evenodd" d="M542.221 281.372L490.731 336.96L473.437 410.735L421.948 466.323L404.655 540.096L353.165 595.685L335.871 669.459L284.381 725.048L267.089 798.819L215.599 854.408L198.305 928.183L146.971 983.605L148.198 984.766L199.847 929.003L217.142 855.228L268.631 799.639L285.924 725.868L337.413 670.279L354.707 596.505L406.196 540.916L423.49 467.143L474.979 411.555L492.274 337.78L543.762 282.191L561.056 208.42L612.545 152.83L629.894 78.8292L628.244 78.4615L611.003 152.01L559.513 207.6L542.221 281.372Z" fill="red"/>
<path fill-rule="evenodd" clip-rule="evenodd" d="M553.692 287.471L502.203 343.059L484.909 416.835L433.419 472.423L416.126 546.195L364.637 601.784L347.343 675.558L295.853 731.147L278.56 804.919L227.071 860.508L209.777 934.282L158.442 989.704L159.67 990.865L211.318 935.102L228.613 861.328L280.102 805.739L297.396 731.967L348.885 676.378L366.179 602.604L417.668 547.015L434.962 473.243L486.45 417.654L503.746 343.879L555.234 288.291L572.527 214.519L624.017 158.929L641.365 84.9285L639.716 84.5608L622.475 158.109L570.985 213.699L553.692 287.471Z" fill="red"/>
<path fill-rule="evenodd" clip-rule="evenodd" d="M566.596 294.332L515.107 349.921L497.812 423.696L446.324 479.284L429.03 553.056L377.541 608.646L360.246 682.419L308.757 738.009L291.464 811.78L239.975 867.369L222.68 941.144L171.347 996.566L172.574 997.727L224.223 941.964L241.517 868.189L293.007 812.6L310.3 738.829L361.789 683.239L379.083 609.466L430.572 553.877L447.866 480.104L499.355 424.516L516.65 350.741L568.138 295.152L585.432 221.381L636.921 165.791L654.269 91.7901L652.62 91.4224L635.379 164.971L583.889 220.561L566.596 294.332Z" fill="red"/>
<path fill-rule="evenodd" clip-rule="evenodd" d="M578.067 300.431L526.578 356.02L509.283 429.795L457.794 485.384L440.501 559.156L389.012 614.745L371.717 688.519L320.228 744.108L302.935 817.879L251.446 873.469L234.151 947.243L182.818 1002.67L184.045 1003.83L235.693 948.063L252.988 874.289L304.477 818.699L321.771 744.928L373.26 689.339L390.554 615.565L442.043 559.976L459.337 486.204L510.825 430.615L528.121 356.84L579.609 301.252L596.902 227.48L648.392 171.89L665.74 97.8895L664.092 97.5222L646.849 171.07L595.36 226.66L578.067 300.431Z" fill="red"/>
<path fill-rule="evenodd" clip-rule="evenodd" d="M590.972 307.293L539.483 362.881L522.188 436.657L470.699 492.245L453.406 566.017L401.917 621.607L384.622 695.38L333.133 750.969L315.84 824.741L264.351 880.33L247.056 954.105L195.723 1009.53L196.95 1010.69L248.599 954.925L265.893 881.15L317.383 825.561L334.675 751.789L386.165 696.2L403.459 622.426L454.948 566.837L472.241 493.065L523.731 437.477L541.025 363.701L592.514 308.113L609.807 234.341L661.297 178.752L678.645 104.751L676.996 104.383L659.755 177.932L608.265 233.522L590.972 307.293Z" fill="red"/>
<path fill-rule="evenodd" clip-rule="evenodd" d="M602.443 313.392L550.954 368.981L533.659 442.756L482.17 498.344L464.876 572.116L413.387 627.706L396.093 701.479L344.604 757.069L327.311 830.84L275.822 886.429L258.527 960.204L207.193 1015.63L208.42 1016.79L260.069 961.024L277.363 887.249L328.853 831.66L346.146 757.888L397.635 702.3L414.929 628.525L466.419 572.937L483.712 499.164L535.201 443.576L552.496 369.8L603.985 314.212L621.278 240.44L672.768 184.851L690.115 110.85L688.467 110.482L671.225 184.031L619.736 239.621L602.443 313.392Z" fill="red"/>
<path fill-rule="evenodd" clip-rule="evenodd" d="M615.348 320.254L563.859 375.842L546.564 449.618L495.075 505.206L477.782 578.978L426.293 634.567L408.998 708.341L357.509 763.93L340.216 837.702L288.727 893.291L271.432 967.065L220.099 1022.49L221.326 1023.65L272.975 967.886L290.269 894.111L341.759 838.522L359.051 764.75L410.541 709.161L427.835 635.387L479.324 579.798L496.617 506.026L548.107 450.438L565.401 376.662L616.89 321.074L634.183 247.302L685.673 191.713L703.021 117.712L701.372 117.344L684.131 190.893L632.641 246.483L615.348 320.254Z" fill="red"/>
<path fill-rule="evenodd" clip-rule="evenodd" d="M626.819 326.353L575.33 381.941L558.035 455.717L506.546 511.305L489.252 585.077L437.763 640.667L420.469 714.44L368.98 770.03L351.687 843.801L300.198 899.39L282.903 973.165L231.569 1028.59L232.796 1029.75L284.445 973.985L301.739 900.21L353.229 844.621L370.522 770.849L422.011 715.26L439.305 641.486L490.795 585.898L508.088 512.125L559.577 456.537L576.872 382.761L628.361 327.173L645.654 253.401L697.144 197.812L714.491 123.811L712.843 123.443L695.601 196.992L644.112 252.582L626.819 326.353Z" fill="red"/>
<path fill-rule="evenodd" clip-rule="evenodd" d="M639.725 333.215L588.235 388.803L570.941 462.579L519.451 518.167L502.158 591.939L450.669 647.528L433.375 721.302L381.885 776.891L364.593 850.663L313.103 906.252L295.809 980.027L244.475 1035.45L245.702 1036.61L297.351 980.846L314.645 907.072L366.134 851.483L383.427 777.711L434.917 722.122L452.211 648.348L503.7 592.759L520.993 518.987L572.483 463.398L589.777 389.623L641.266 334.035L658.559 260.263L710.049 204.673L727.397 130.672L725.748 130.305L708.507 203.854L657.017 259.443L639.725 333.215Z" fill="red"/>
<path fill-rule="evenodd" clip-rule="evenodd" d="M672.259 262.834L654.966 336.606L603.476 392.195L586.182 465.97L534.693 521.558L517.4 595.33L465.91 650.92L448.616 724.693L397.126 780.283L379.834 854.054L328.344 909.644L311.05 983.418L259.716 1038.84L260.943 1040L312.592 984.238L329.886 910.464L381.376 854.874L398.669 781.103L450.158 725.513L467.452 651.74L518.942 596.15L536.235 522.378L587.724 466.79L605.019 393.015L656.508 337.426L673.801 263.654L725.29 208.065L742.638 134.064L740.989 133.696L723.748 207.245L672.259 262.834Z" fill="red"/>
<path fill-rule="evenodd" clip-rule="evenodd" d="M667.871 343.468L616.382 399.056L599.087 472.832L547.598 528.42L530.305 602.192L478.815 657.781L461.521 731.555L410.032 787.144L392.739 860.916L341.249 916.505L323.955 990.279L272.621 1045.7L273.849 1046.86L325.497 991.099L342.792 917.325L394.281 861.736L411.574 787.964L463.063 732.375L480.358 658.601L531.847 603.012L549.14 529.24L600.629 473.651L617.924 399.876L669.413 344.288L686.706 270.516L738.196 214.926L755.544 140.926L753.895 140.558L736.654 214.106L685.164 269.696L667.871 343.468Z" fill="red"/>
<path fill-rule="evenodd" clip-rule="evenodd" d="M679.342 349.567L627.853 405.155L610.558 478.931L559.069 534.519L541.776 608.292L490.286 663.88L472.992 737.654L421.502 793.243L404.21 867.015L352.72 922.604L335.426 996.379L284.092 1051.8L285.32 1052.96L336.968 997.199L354.263 923.424L405.752 867.835L423.045 794.064L474.534 738.474L491.829 664.701L543.317 609.111L560.611 535.339L612.1 479.751L629.395 405.976L680.884 350.387L698.177 276.616L749.666 221.026L767.015 147.025L765.365 146.657L748.124 220.206L696.634 275.795L679.342 349.567Z" fill="red"/>
<path fill-rule="evenodd" clip-rule="evenodd" d="M692.245 356.428L640.757 412.017L623.462 485.792L571.973 541.381L554.679 615.153L503.19 670.742L485.896 744.516L434.407 800.105L417.114 873.876L365.624 929.466L348.33 1003.24L296.996 1058.66L298.224 1059.82L349.872 1004.06L367.167 930.286L418.656 874.696L435.949 800.925L487.438 745.336L504.733 671.562L556.222 615.973L573.515 542.201L625.004 486.612L642.299 412.837L693.788 357.249L711.081 283.477L762.571 227.887L779.919 153.886L778.27 153.519L761.028 227.067L709.539 282.657L692.245 356.428Z" fill="red"/>
<path fill-rule="evenodd" clip-rule="evenodd" d="M703.717 362.528L652.228 418.116L634.933 491.891L583.445 547.48L566.151 621.252L514.662 676.841L497.367 750.615L445.878 806.204L428.585 879.975L377.096 935.565L359.801 1009.34L308.469 1064.76L309.695 1065.92L361.344 1010.16L378.639 936.385L430.128 880.796L447.421 807.024L498.91 751.435L516.204 677.661L567.693 622.072L584.987 548.3L636.476 492.711L653.771 418.936L705.26 363.348L722.553 289.576L774.042 233.986L791.391 159.986L789.742 159.618L772.5 233.166L721.01 288.756L703.717 362.528Z" fill="red"/>
<path fill-rule="evenodd" clip-rule="evenodd" d="M716.621 369.389L665.133 424.978L647.838 498.753L596.349 554.341L579.055 628.114L527.566 683.703L510.272 757.477L458.783 813.066L441.489 886.837L390 942.426L372.706 1016.2L321.373 1071.62L322.6 1072.78L374.248 1017.02L391.543 943.247L443.032 887.657L460.325 813.886L511.814 758.297L529.109 684.523L580.598 628.934L597.891 555.162L649.38 499.573L666.675 425.798L718.164 370.21L735.457 296.438L786.947 240.848L804.295 166.847L802.646 166.48L785.404 240.028L733.915 295.618L716.621 369.389Z" fill="red"/>
<path fill-rule="evenodd" clip-rule="evenodd" d="M728.093 375.488L676.604 431.077L659.309 504.852L607.821 560.441L590.527 634.213L539.038 689.802L521.743 763.576L470.254 819.165L452.961 892.936L401.472 948.526L384.177 1022.3L332.844 1077.72L334.071 1078.88L385.72 1023.12L403.014 949.345L454.504 893.757L471.796 819.985L523.286 764.396L540.58 690.622L592.069 635.033L609.362 561.26L660.852 505.672L678.146 431.897L729.636 376.309L746.928 302.537L798.418 246.947L815.766 172.946L814.117 172.579L796.876 246.127L745.386 301.717L728.093 375.488Z" fill="red"/>
<path fill-rule="evenodd" clip-rule="evenodd" d="M739.564 381.588L688.075 437.176L670.78 510.952L619.291 566.54L601.998 640.312L550.509 695.901L533.214 769.675L481.725 825.264L464.432 899.036L412.943 954.625L395.648 1028.4L344.315 1083.82L345.541 1084.98L397.19 1029.22L414.485 955.445L465.974 899.856L483.267 826.084L534.757 770.495L552.05 696.721L603.54 641.132L620.833 567.36L672.322 511.772L689.617 437.996L741.106 382.408L758.399 308.636L809.889 253.047L827.237 179.046L825.588 178.678L808.346 252.226L756.857 307.816L739.564 381.588Z" fill="red"/>
<path fill-rule="evenodd" clip-rule="evenodd" d="M752.469 388.449L700.98 444.038L683.685 517.813L632.197 573.402L614.903 647.174L563.414 702.763L546.119 776.537L494.63 832.126L477.337 905.897L425.848 961.487L408.553 1035.26L357.22 1090.68L358.447 1091.84L410.096 1036.08L427.39 962.306L478.88 906.717L496.172 832.946L547.662 777.357L564.956 703.583L616.445 647.994L633.738 574.221L685.228 518.633L702.522 444.858L754.012 389.27L771.304 315.498L822.794 259.908L840.142 185.907L838.493 185.54L821.252 259.088L769.762 314.678L752.469 388.449Z" fill="red"/>
<path fill-rule="evenodd" clip-rule="evenodd" d="M763.94 394.549L712.451 450.137L695.157 523.913L643.667 579.501L626.374 653.273L574.885 708.862L557.591 782.636L506.101 838.225L488.809 911.997L437.319 967.586L420.025 1041.36L368.691 1096.78L369.917 1097.94L421.566 1042.18L438.861 968.405L490.35 912.817L507.643 839.045L559.133 783.456L576.426 709.682L627.916 654.093L645.209 580.32L696.698 524.732L713.993 450.957L765.482 395.369L782.775 321.597L834.265 266.007L851.613 192.006L849.964 191.639L832.723 265.188L781.233 320.777L763.94 394.549Z" fill="red"/>
<path fill-rule="evenodd" clip-rule="evenodd" d="M776.845 401.411L725.355 456.999L708.061 530.774L656.572 586.362L639.279 660.135L587.789 715.724L570.495 789.498L519.005 845.087L501.713 918.859L450.223 974.447L432.929 1048.22L381.595 1103.64L382.822 1104.8L434.471 1049.04L451.766 975.268L503.255 919.678L520.548 845.907L572.037 790.318L589.331 716.544L640.82 660.955L658.114 587.183L709.603 531.594L726.898 457.819L778.387 402.231L795.68 328.459L847.169 272.869L864.517 198.868L862.868 198.501L845.627 272.049L794.137 327.639L776.845 401.411Z" fill="red"/>
<path fill-rule="evenodd" clip-rule="evenodd" d="M788.316 407.51L736.827 463.098L719.532 536.874L668.043 592.462L650.75 666.234L599.261 721.823L581.967 795.597L530.477 851.186L513.184 924.958L461.695 980.547L444.401 1054.32L393.067 1109.74L394.293 1110.9L445.942 1055.14L463.237 981.367L514.726 925.778L532.02 852.006L583.509 796.417L600.803 722.643L652.292 667.054L669.586 593.282L721.074 537.693L738.37 463.918L789.858 408.33L807.152 334.558L858.641 278.968L875.989 204.967L874.34 204.6L857.099 278.148L805.609 333.738L788.316 407.51Z" fill="red"/>
<path fill-rule="evenodd" clip-rule="evenodd" d="M801.221 414.371L749.731 469.96L732.437 543.735L680.948 599.323L663.655 673.096L612.165 728.685L594.871 802.459L543.381 858.048L526.089 931.819L474.599 987.408L457.305 1061.18L405.971 1116.6L407.198 1117.77L458.847 1062L476.142 988.228L527.631 932.639L544.924 858.868L596.413 803.278L613.707 729.505L665.196 673.916L682.49 600.143L733.979 544.555L751.274 470.78L802.762 415.191L820.056 341.42L871.545 285.83L888.894 211.829L887.244 211.461L870.003 285.01L818.513 340.6L801.221 414.371Z" fill="red"/>
<path fill-rule="evenodd" clip-rule="evenodd" d="M812.692 420.471L761.203 476.059L743.909 549.835L692.419 605.423L675.126 679.195L623.637 734.784L606.343 808.558L554.853 864.147L537.56 937.919L486.071 993.508L468.777 1067.28L417.442 1122.7L418.67 1123.87L470.318 1068.1L487.613 994.328L539.102 938.738L556.396 864.967L607.885 809.378L625.179 735.604L676.668 680.015L693.962 606.243L745.45 550.654L762.746 476.879L814.234 421.291L831.527 347.519L883.017 291.929L900.365 217.928L898.716 217.561L881.475 291.109L829.985 346.699L812.692 420.471Z" fill="red"/>
<path fill-rule="evenodd" clip-rule="evenodd" d="M825.596 427.332L774.107 482.92L756.812 556.696L705.324 612.284L688.03 686.056L636.541 741.646L619.246 815.419L567.757 871.008L550.464 944.78L498.975 1000.37L481.68 1074.14L430.347 1129.57L431.574 1130.73L483.223 1074.96L500.517 1001.19L552.007 945.6L569.3 871.829L620.789 816.239L638.083 742.466L689.572 686.876L706.866 613.104L758.355 557.516L775.65 483.741L827.138 428.152L844.432 354.381L895.921 298.791L913.269 224.79L911.62 224.422L894.379 297.971L842.889 353.561L825.596 427.332Z" fill="red"/>
<path fill-rule="evenodd" clip-rule="evenodd" d="M837.067 433.431L785.578 489.02L768.283 562.795L716.794 618.383L699.501 692.156L648.012 747.745L630.717 821.519L579.228 877.108L561.935 950.879L510.446 1006.47L493.151 1080.24L441.818 1135.67L443.045 1136.83L494.693 1081.06L511.988 1007.29L563.477 951.699L580.771 877.928L632.26 822.339L649.554 748.565L701.043 692.976L718.337 619.204L769.825 563.615L787.121 489.84L838.609 434.252L855.902 360.48L907.392 304.89L924.74 230.889L923.092 230.522L905.849 304.07L854.36 359.66L837.067 433.431Z" fill="red"/>
<path fill-rule="evenodd" clip-rule="evenodd" d="M849.972 440.293L798.483 495.881L781.188 569.657L729.699 625.245L712.406 699.017L660.917 754.606L643.622 828.38L592.133 883.969L574.84 957.741L523.351 1013.33L506.056 1087.1L454.723 1142.53L455.95 1143.69L507.599 1087.92L524.893 1014.15L576.383 958.561L593.675 884.789L645.165 829.2L662.459 755.426L713.948 699.837L731.241 626.065L782.731 570.477L800.025 496.701L851.514 441.113L868.807 367.341L920.297 311.752L937.645 237.751L935.996 237.383L918.755 310.932L867.265 366.522L849.972 440.293Z" fill="red"/>
<path fill-rule="evenodd" clip-rule="evenodd" d="M861.443 446.392L809.954 501.98L792.659 575.756L741.17 631.344L723.876 705.116L672.387 760.706L655.093 834.479L603.604 890.069L586.311 963.84L534.822 1019.43L517.527 1093.2L466.193 1148.63L467.42 1149.79L519.069 1094.02L536.363 1020.25L587.853 964.66L605.146 890.888L656.635 835.299L673.929 761.525L725.419 705.937L742.712 632.164L794.201 576.576L811.496 502.8L862.985 447.212L880.278 373.44L931.768 317.851L949.115 243.85L947.467 243.482L930.225 317.031L878.736 372.621L861.443 446.392Z" fill="red"/>
<path fill-rule="evenodd" clip-rule="evenodd" d="M874.348 453.254L822.859 508.842L805.564 582.618L754.075 638.206L736.782 711.978L685.293 767.567L667.998 841.341L616.509 896.93L599.216 970.702L547.727 1026.29L530.432 1100.07L479.099 1155.49L480.326 1156.65L531.975 1100.89L549.269 1027.11L600.759 971.522L618.051 897.75L669.541 842.161L686.835 768.387L738.324 712.798L755.617 639.026L807.107 583.438L824.401 509.662L875.89 454.074L893.183 380.302L944.673 324.713L962.021 250.712L960.372 250.344L943.131 323.892L891.641 379.482L874.348 453.254Z" fill="red"/>
<path fill-rule="evenodd" clip-rule="evenodd" d="M885.819 459.353L834.33 514.941L817.035 588.717L765.546 644.305L748.252 718.077L696.763 773.667L679.469 847.44L627.98 903.029L610.687 976.801L559.198 1032.39L541.903 1106.16L490.569 1161.59L491.796 1162.75L543.445 1106.98L560.739 1033.21L612.229 977.621L629.522 903.849L681.011 848.26L698.305 774.486L749.795 718.897L767.088 645.125L818.577 589.537L835.872 515.761L887.361 460.173L904.654 386.401L956.144 330.812L973.491 256.811L971.843 256.443L954.601 329.992L903.112 385.582L885.819 459.353Z" fill="red"/>
<path fill-rule="evenodd" clip-rule="evenodd" d="M898.725 466.215L847.235 521.803L829.941 595.579L778.451 651.167L761.158 724.939L709.669 780.528L692.375 854.302L640.885 909.891L623.593 983.663L572.103 1039.25L554.809 1113.03L503.475 1168.45L504.702 1169.61L556.351 1113.85L573.645 1040.07L625.134 984.483L642.427 910.711L693.917 855.122L711.211 781.348L762.7 725.759L779.993 651.986L831.483 596.398L848.777 522.623L900.266 467.035L917.559 393.263L969.049 337.673L986.397 263.672L984.748 263.305L967.507 336.854L916.017 392.443L898.725 466.215Z" fill="red"/>
</svg>
